<mxfile host="app.diagrams.net" agent="Mozilla/5.0 (Windows NT 10.0; Win64; x64) AppleWebKit/537.36 (KHTML, like Gecko) Chrome/130.0.0.0 Safari/537.36" version="24.8.4" pages="2">
  <diagram name="Tree" id="10a91c8b-09ff-31b1-d368-03940ed4cc9e">
    <mxGraphModel dx="4076" dy="2642" grid="1" gridSize="10" guides="1" tooltips="1" connect="1" arrows="1" fold="1" page="1" pageScale="1" pageWidth="1100" pageHeight="850" background="none" math="0" shadow="0">
      <root>
        <mxCell id="0" />
        <mxCell id="1" parent="0" />
        <mxCell id="62893188c0fa7362-1" value="Вінтрман Сергій Сергйович&lt;div&gt;(21.12.2001)&lt;/div&gt;&lt;div&gt;-&lt;/div&gt;&lt;div&gt;Мелитополь, Запорожская область, Украина&lt;/div&gt;" style="whiteSpace=wrap;html=1;rounded=1;shadow=1;labelBackgroundColor=none;strokeWidth=1;fontFamily=Verdana;fontSize=12;align=center;" parent="1" vertex="1">
          <mxGeometry x="190" y="690" width="120" height="190" as="geometry" />
        </mxCell>
        <mxCell id="62893188c0fa7362-2" value="Лисенко Оксана Євгенівна&lt;div&gt;(25.01.1972)&lt;/div&gt;&lt;div&gt;-&lt;/div&gt;&lt;div&gt;Мелитополь, Запорожская область, Украина СССР&lt;/div&gt;" style="whiteSpace=wrap;html=1;rounded=1;shadow=1;labelBackgroundColor=none;strokeWidth=1;fontFamily=Verdana;fontSize=12;align=center;" parent="1" vertex="1">
          <mxGeometry x="-750" y="410" width="120" height="200" as="geometry" />
        </mxCell>
        <mxCell id="c7k48cxhKmRUR40ziaNG-1" style="edgeStyle=orthogonalEdgeStyle;rounded=0;orthogonalLoop=1;jettySize=auto;html=1;exitX=0;exitY=0.5;exitDx=0;exitDy=0;entryX=1;entryY=0.5;entryDx=0;entryDy=0;strokeColor=default;shape=link;" parent="1" source="62893188c0fa7362-3" target="62893188c0fa7362-2" edge="1">
          <mxGeometry relative="1" as="geometry" />
        </mxCell>
        <mxCell id="c7k48cxhKmRUR40ziaNG-17" value="10.12.1999 Мелитополь" style="edgeLabel;html=1;align=center;verticalAlign=middle;resizable=0;points=[];" parent="c7k48cxhKmRUR40ziaNG-1" vertex="1" connectable="0">
          <mxGeometry x="0.5306" y="-8" relative="1" as="geometry">
            <mxPoint as="offset" />
          </mxGeometry>
        </mxCell>
        <mxCell id="62893188c0fa7362-3" value="&lt;span&gt;Вінтерман Сергій Зіфрідович&amp;nbsp;&lt;/span&gt;&lt;div&gt;(26.06.1962)&lt;/div&gt;&lt;div&gt;-&lt;/div&gt;&lt;div&gt;Мелитополь, Запорожская область, Украина СССР&lt;/div&gt;" style="whiteSpace=wrap;html=1;rounded=1;shadow=1;labelBackgroundColor=none;strokeWidth=1;fontFamily=Verdana;fontSize=12;align=center;" parent="1" vertex="1">
          <mxGeometry x="790" y="410" width="120" height="200" as="geometry" />
        </mxCell>
        <mxCell id="62893188c0fa7362-4" value="" style="rounded=0;html=1;labelBackgroundColor=none;startArrow=none;startFill=0;startSize=5;endArrow=none;endFill=0;endSize=5;jettySize=auto;orthogonalLoop=1;strokeWidth=1;fontFamily=Verdana;fontSize=12;exitX=1;exitY=0.25;exitDx=0;exitDy=0;" parent="1" source="62893188c0fa7362-1" target="62893188c0fa7362-3" edge="1">
          <mxGeometry x="-0.3002" y="13" relative="1" as="geometry">
            <mxPoint as="offset" />
          </mxGeometry>
        </mxCell>
        <mxCell id="62893188c0fa7362-5" value="" style="rounded=0;html=1;labelBackgroundColor=none;startArrow=none;startFill=0;startSize=5;endArrow=none;endFill=0;endSize=5;jettySize=auto;orthogonalLoop=1;strokeWidth=1;fontFamily=Verdana;fontSize=12" parent="1" source="62893188c0fa7362-1" target="62893188c0fa7362-2" edge="1">
          <mxGeometry x="-0.359" y="-11" relative="1" as="geometry">
            <mxPoint as="offset" />
          </mxGeometry>
        </mxCell>
        <mxCell id="c7k48cxhKmRUR40ziaNG-10" value="&lt;div style=&quot;font-size: 11px;&quot;&gt;&lt;font style=&quot;font-size: 11px;&quot;&gt;Винтерман (Димитрова) Вера Афанасеевна&lt;/font&gt;&lt;/div&gt;&lt;div style=&quot;font-size: 11px;&quot;&gt;&lt;font style=&quot;font-size: 11px;&quot;&gt;(14.05.1937-04.09.2013)&amp;nbsp;&lt;/font&gt;&lt;/div&gt;&lt;div style=&quot;font-size: 11px;&quot;&gt;&lt;font style=&quot;font-size: 11px;&quot;&gt;болгарка&lt;/font&gt;&lt;/div&gt;&lt;div style=&quot;font-size: 11px;&quot;&gt;&lt;font style=&quot;font-size: 11px;&quot;&gt;Гирсовка, Приазовский район, Украина СССР&lt;/font&gt;&lt;/div&gt;" style="whiteSpace=wrap;html=1;rounded=1;shadow=1;labelBackgroundColor=none;strokeWidth=1;fontFamily=Verdana;fontSize=12;align=center;" parent="1" vertex="1">
          <mxGeometry x="470" y="130" width="120" height="200" as="geometry" />
        </mxCell>
        <mxCell id="c7k48cxhKmRUR40ziaNG-11" style="edgeStyle=orthogonalEdgeStyle;rounded=0;orthogonalLoop=1;jettySize=auto;html=1;exitX=0;exitY=0.5;exitDx=0;exitDy=0;entryX=1;entryY=0.5;entryDx=0;entryDy=0;strokeColor=default;shape=link;" parent="1" source="c7k48cxhKmRUR40ziaNG-12" target="c7k48cxhKmRUR40ziaNG-10" edge="1">
          <mxGeometry relative="1" as="geometry" />
        </mxCell>
        <mxCell id="c7k48cxhKmRUR40ziaNG-16" value="30.12.1955 Гирсовка" style="edgeLabel;html=1;align=center;verticalAlign=middle;resizable=0;points=[];" parent="c7k48cxhKmRUR40ziaNG-11" vertex="1" connectable="0">
          <mxGeometry x="0.526" y="-12" relative="1" as="geometry">
            <mxPoint as="offset" />
          </mxGeometry>
        </mxCell>
        <mxCell id="c7k48cxhKmRUR40ziaNG-12" value="Винтерман Зифрид Фрицевич&lt;div&gt;(1932-)&lt;/div&gt;&lt;div&gt;латыш&lt;/div&gt;&lt;div&gt;Бобруйск, Октябрський район, Беларусь СССР&lt;/div&gt;" style="whiteSpace=wrap;html=1;rounded=1;shadow=1;labelBackgroundColor=none;strokeWidth=1;fontFamily=Verdana;fontSize=12;align=center;" parent="1" vertex="1">
          <mxGeometry x="1110" y="130" width="120" height="200" as="geometry" />
        </mxCell>
        <mxCell id="c7k48cxhKmRUR40ziaNG-13" value="" style="rounded=0;html=1;labelBackgroundColor=none;startArrow=none;startFill=0;startSize=5;endArrow=none;endFill=0;endSize=5;jettySize=auto;orthogonalLoop=1;strokeWidth=1;fontFamily=Verdana;fontSize=12;exitX=1;exitY=0.25;exitDx=0;exitDy=0;" parent="1" source="62893188c0fa7362-3" target="c7k48cxhKmRUR40ziaNG-12" edge="1">
          <mxGeometry x="-0.3002" y="13" relative="1" as="geometry">
            <mxPoint as="offset" />
            <mxPoint x="770" y="370" as="sourcePoint" />
          </mxGeometry>
        </mxCell>
        <mxCell id="c7k48cxhKmRUR40ziaNG-14" value="" style="rounded=0;html=1;labelBackgroundColor=none;startArrow=none;startFill=0;startSize=5;endArrow=none;endFill=0;endSize=5;jettySize=auto;orthogonalLoop=1;strokeWidth=1;fontFamily=Verdana;fontSize=12;exitX=0;exitY=0.25;exitDx=0;exitDy=0;" parent="1" source="62893188c0fa7362-3" target="c7k48cxhKmRUR40ziaNG-10" edge="1">
          <mxGeometry x="-0.359" y="-11" relative="1" as="geometry">
            <mxPoint as="offset" />
            <mxPoint x="665" y="390" as="sourcePoint" />
          </mxGeometry>
        </mxCell>
        <mxCell id="c7k48cxhKmRUR40ziaNG-19" value="&lt;div style=&quot;font-size: 11px;&quot;&gt;&lt;font style=&quot;font-size: 11px;&quot;&gt;Димитрова (?) Зиновя Николаевна&lt;/font&gt;&lt;/div&gt;&lt;div style=&quot;font-size: 11px;&quot;&gt;&lt;font style=&quot;font-size: 11px;&quot;&gt;(1903-)&amp;nbsp;&lt;/font&gt;&lt;/div&gt;&lt;div style=&quot;font-size: 11px;&quot;&gt;&lt;font style=&quot;font-size: 11px;&quot;&gt;болгарка&lt;/font&gt;&lt;/div&gt;&lt;div style=&quot;font-size: 11px;&quot;&gt;Гирсовка, Бердянский повет, Таврийская губерния, Украина Российская Империя&lt;/div&gt;&lt;div style=&quot;font-size: 11px;&quot;&gt;колхозница&lt;/div&gt;" style="whiteSpace=wrap;html=1;rounded=1;shadow=1;labelBackgroundColor=none;strokeWidth=1;fontFamily=Verdana;fontSize=12;align=center;" parent="1" vertex="1">
          <mxGeometry x="290" y="-150" width="120" height="200" as="geometry" />
        </mxCell>
        <mxCell id="c7k48cxhKmRUR40ziaNG-20" style="edgeStyle=orthogonalEdgeStyle;rounded=0;orthogonalLoop=1;jettySize=auto;html=1;exitX=0;exitY=0.5;exitDx=0;exitDy=0;entryX=1;entryY=0.5;entryDx=0;entryDy=0;strokeColor=default;shape=link;" parent="1" source="c7k48cxhKmRUR40ziaNG-22" target="c7k48cxhKmRUR40ziaNG-19" edge="1">
          <mxGeometry relative="1" as="geometry" />
        </mxCell>
        <mxCell id="c7k48cxhKmRUR40ziaNG-21" value="1937 Гирсовка" style="edgeLabel;html=1;align=center;verticalAlign=middle;resizable=0;points=[];" parent="c7k48cxhKmRUR40ziaNG-20" vertex="1" connectable="0">
          <mxGeometry x="0.526" y="-12" relative="1" as="geometry">
            <mxPoint as="offset" />
          </mxGeometry>
        </mxCell>
        <mxCell id="c7k48cxhKmRUR40ziaNG-22" value="Димитров Афанасий Прокофиев&lt;div&gt;(24.01.1902-)&lt;/div&gt;&lt;div&gt;болгарин&lt;/div&gt;&lt;div&gt;&lt;span style=&quot;font-size: 11px;&quot;&gt;Гирсовка, Бердянский повет, Таврийская губерния, Украина Российская Империя&lt;/span&gt;&lt;/div&gt;&lt;div&gt;&lt;span style=&quot;font-size: 11px;&quot;&gt;колхозник&lt;/span&gt;&lt;/div&gt;" style="whiteSpace=wrap;html=1;rounded=1;shadow=1;labelBackgroundColor=none;strokeWidth=1;fontFamily=Verdana;fontSize=12;align=center;" parent="1" vertex="1">
          <mxGeometry x="640" y="-150" width="120" height="200" as="geometry" />
        </mxCell>
        <mxCell id="c7k48cxhKmRUR40ziaNG-23" value="" style="rounded=0;html=1;labelBackgroundColor=none;startArrow=none;startFill=0;startSize=5;endArrow=none;endFill=0;endSize=5;jettySize=auto;orthogonalLoop=1;strokeWidth=1;fontFamily=Verdana;fontSize=12;exitX=1;exitY=0.25;exitDx=0;exitDy=0;" parent="1" source="c7k48cxhKmRUR40ziaNG-10" target="c7k48cxhKmRUR40ziaNG-22" edge="1">
          <mxGeometry x="-0.3002" y="13" relative="1" as="geometry">
            <mxPoint as="offset" />
            <mxPoint x="640" y="150" as="sourcePoint" />
          </mxGeometry>
        </mxCell>
        <mxCell id="c7k48cxhKmRUR40ziaNG-24" value="" style="rounded=0;html=1;labelBackgroundColor=none;startArrow=none;startFill=0;startSize=5;endArrow=none;endFill=0;endSize=5;jettySize=auto;orthogonalLoop=1;strokeWidth=1;fontFamily=Verdana;fontSize=12;exitX=0;exitY=0.25;exitDx=0;exitDy=0;" parent="1" source="c7k48cxhKmRUR40ziaNG-10" target="c7k48cxhKmRUR40ziaNG-19" edge="1">
          <mxGeometry x="-0.359" y="-11" relative="1" as="geometry">
            <mxPoint as="offset" />
            <mxPoint x="440" y="170" as="sourcePoint" />
          </mxGeometry>
        </mxCell>
        <mxCell id="c7k48cxhKmRUR40ziaNG-26" value="&lt;div style=&quot;font-size: 11px;&quot;&gt;&lt;font style=&quot;font-size: 11px;&quot;&gt;Димитрова (?) Агафия Кириллова&lt;/font&gt;&lt;/div&gt;&lt;div style=&quot;font-size: 11px;&quot;&gt;&lt;font style=&quot;font-size: 11px;&quot;&gt;(-)&amp;nbsp;&lt;/font&gt;&lt;/div&gt;&lt;div style=&quot;font-size: 11px;&quot;&gt;-&lt;/div&gt;&lt;div style=&quot;font-size: 11px;&quot;&gt;&lt;br&gt;&lt;/div&gt;" style="whiteSpace=wrap;html=1;rounded=1;shadow=1;labelBackgroundColor=none;strokeWidth=1;fontFamily=Verdana;fontSize=12;align=center;" parent="1" vertex="1">
          <mxGeometry x="460" y="-430" width="120" height="200" as="geometry" />
        </mxCell>
        <mxCell id="c7k48cxhKmRUR40ziaNG-27" style="edgeStyle=orthogonalEdgeStyle;rounded=0;orthogonalLoop=1;jettySize=auto;html=1;exitX=0;exitY=0.5;exitDx=0;exitDy=0;entryX=1;entryY=0.5;entryDx=0;entryDy=0;strokeColor=default;shape=link;" parent="1" source="c7k48cxhKmRUR40ziaNG-29" target="c7k48cxhKmRUR40ziaNG-26" edge="1">
          <mxGeometry relative="1" as="geometry" />
        </mxCell>
        <mxCell id="c7k48cxhKmRUR40ziaNG-28" value="-" style="edgeLabel;html=1;align=center;verticalAlign=middle;resizable=0;points=[];" parent="c7k48cxhKmRUR40ziaNG-27" vertex="1" connectable="0">
          <mxGeometry x="0.526" y="-12" relative="1" as="geometry">
            <mxPoint as="offset" />
          </mxGeometry>
        </mxCell>
        <mxCell id="c7k48cxhKmRUR40ziaNG-29" value="Димитров Прокофий Васильев&lt;div&gt;(-)&lt;/div&gt;&lt;div&gt;-&lt;/div&gt;&lt;div&gt;&lt;br&gt;&lt;/div&gt;" style="whiteSpace=wrap;html=1;rounded=1;shadow=1;labelBackgroundColor=none;strokeWidth=1;fontFamily=Verdana;fontSize=12;align=center;" parent="1" vertex="1">
          <mxGeometry x="810" y="-430" width="120" height="200" as="geometry" />
        </mxCell>
        <mxCell id="c7k48cxhKmRUR40ziaNG-30" value="" style="rounded=0;html=1;labelBackgroundColor=none;startArrow=none;startFill=0;startSize=5;endArrow=none;endFill=0;endSize=5;jettySize=auto;orthogonalLoop=1;strokeWidth=1;fontFamily=Verdana;fontSize=12;exitX=1;exitY=0.25;exitDx=0;exitDy=0;" parent="1" source="c7k48cxhKmRUR40ziaNG-22" target="c7k48cxhKmRUR40ziaNG-29" edge="1">
          <mxGeometry x="-0.3002" y="13" relative="1" as="geometry">
            <mxPoint as="offset" />
            <mxPoint x="780" y="-110" as="sourcePoint" />
          </mxGeometry>
        </mxCell>
        <mxCell id="c7k48cxhKmRUR40ziaNG-31" value="" style="rounded=0;html=1;labelBackgroundColor=none;startArrow=none;startFill=0;startSize=5;endArrow=none;endFill=0;endSize=5;jettySize=auto;orthogonalLoop=1;strokeWidth=1;fontFamily=Verdana;fontSize=12;exitX=0;exitY=0.25;exitDx=0;exitDy=0;" parent="1" source="c7k48cxhKmRUR40ziaNG-22" target="c7k48cxhKmRUR40ziaNG-26" edge="1">
          <mxGeometry x="-0.359" y="-11" relative="1" as="geometry">
            <mxPoint as="offset" />
            <mxPoint x="620" y="-110" as="sourcePoint" />
          </mxGeometry>
        </mxCell>
        <mxCell id="c7k48cxhKmRUR40ziaNG-33" value="&lt;div style=&quot;font-size: 11px;&quot;&gt;Винтерман (?) Анна Адамовна&amp;nbsp;&lt;br&gt;(--.11.1907-)&lt;br&gt;латышка&lt;/div&gt;" style="whiteSpace=wrap;html=1;rounded=1;shadow=1;labelBackgroundColor=none;strokeWidth=1;fontFamily=Verdana;fontSize=12;align=center;" parent="1" vertex="1">
          <mxGeometry x="930" y="-150" width="120" height="200" as="geometry" />
        </mxCell>
        <mxCell id="c7k48cxhKmRUR40ziaNG-34" style="edgeStyle=orthogonalEdgeStyle;rounded=0;orthogonalLoop=1;jettySize=auto;html=1;exitX=0;exitY=0.5;exitDx=0;exitDy=0;entryX=1;entryY=0.5;entryDx=0;entryDy=0;strokeColor=default;shape=link;" parent="1" source="c7k48cxhKmRUR40ziaNG-36" target="c7k48cxhKmRUR40ziaNG-33" edge="1">
          <mxGeometry relative="1" as="geometry" />
        </mxCell>
        <mxCell id="c7k48cxhKmRUR40ziaNG-35" value="-" style="edgeLabel;html=1;align=center;verticalAlign=middle;resizable=0;points=[];" parent="c7k48cxhKmRUR40ziaNG-34" vertex="1" connectable="0">
          <mxGeometry x="0.526" y="-12" relative="1" as="geometry">
            <mxPoint as="offset" />
          </mxGeometry>
        </mxCell>
        <mxCell id="c7k48cxhKmRUR40ziaNG-36" value="Винтерман Фриц Яковлевич&amp;nbsp;&lt;br&gt;(1899-)&lt;br&gt;латыш&lt;div&gt;&lt;br/&gt;&lt;/div&gt;" style="whiteSpace=wrap;html=1;rounded=1;shadow=1;labelBackgroundColor=none;strokeWidth=1;fontFamily=Verdana;fontSize=12;align=center;" parent="1" vertex="1">
          <mxGeometry x="1280" y="-150" width="120" height="200" as="geometry" />
        </mxCell>
        <mxCell id="c7k48cxhKmRUR40ziaNG-37" value="" style="rounded=0;html=1;labelBackgroundColor=none;startArrow=none;startFill=0;startSize=5;endArrow=none;endFill=0;endSize=5;jettySize=auto;orthogonalLoop=1;strokeWidth=1;fontFamily=Verdana;fontSize=12;exitX=1;exitY=0.25;exitDx=0;exitDy=0;" parent="1" source="c7k48cxhKmRUR40ziaNG-12" target="c7k48cxhKmRUR40ziaNG-36" edge="1">
          <mxGeometry x="-0.3002" y="13" relative="1" as="geometry">
            <mxPoint as="offset" />
            <mxPoint x="1290" y="170" as="sourcePoint" />
          </mxGeometry>
        </mxCell>
        <mxCell id="c7k48cxhKmRUR40ziaNG-38" value="" style="rounded=0;html=1;labelBackgroundColor=none;startArrow=none;startFill=0;startSize=5;endArrow=none;endFill=0;endSize=5;jettySize=auto;orthogonalLoop=1;strokeWidth=1;fontFamily=Verdana;fontSize=12;exitX=0;exitY=0.25;exitDx=0;exitDy=0;" parent="1" source="c7k48cxhKmRUR40ziaNG-12" target="c7k48cxhKmRUR40ziaNG-33" edge="1">
          <mxGeometry x="-0.359" y="-11" relative="1" as="geometry">
            <mxPoint as="offset" />
            <mxPoint x="1060" y="170" as="sourcePoint" />
          </mxGeometry>
        </mxCell>
        <mxCell id="c7k48cxhKmRUR40ziaNG-40" value="&lt;div style=&quot;font-size: 11px;&quot;&gt;Лысенко (Поленовская) Раиса Николаевна&lt;/div&gt;&lt;div style=&quot;font-size: 11px;&quot;&gt;(07.11.1946)&amp;nbsp;&lt;/div&gt;&lt;div style=&quot;font-size: 11px;&quot;&gt;русская&lt;/div&gt;&lt;div style=&quot;font-size: 11px;&quot;&gt;Спасское, Запорожская область, Украина СССР&lt;/div&gt;" style="whiteSpace=wrap;html=1;rounded=1;shadow=1;labelBackgroundColor=none;strokeWidth=1;fontFamily=Verdana;fontSize=12;align=center;" parent="1" vertex="1">
          <mxGeometry x="-1340" y="130" width="120" height="200" as="geometry" />
        </mxCell>
        <mxCell id="c7k48cxhKmRUR40ziaNG-41" style="edgeStyle=orthogonalEdgeStyle;rounded=0;orthogonalLoop=1;jettySize=auto;html=1;exitX=0;exitY=0.5;exitDx=0;exitDy=0;entryX=1;entryY=0.5;entryDx=0;entryDy=0;strokeColor=default;shape=link;" parent="1" source="c7k48cxhKmRUR40ziaNG-43" target="c7k48cxhKmRUR40ziaNG-40" edge="1">
          <mxGeometry relative="1" as="geometry" />
        </mxCell>
        <mxCell id="c7k48cxhKmRUR40ziaNG-42" value="?" style="edgeLabel;html=1;align=center;verticalAlign=middle;resizable=0;points=[];" parent="c7k48cxhKmRUR40ziaNG-41" vertex="1" connectable="0">
          <mxGeometry x="0.526" y="-12" relative="1" as="geometry">
            <mxPoint as="offset" />
          </mxGeometry>
        </mxCell>
        <mxCell id="c7k48cxhKmRUR40ziaNG-43" value="Лысенко Евгений Яковлевич&lt;div&gt;(23.02.1948)&lt;/div&gt;&lt;div&gt;украинец&lt;/div&gt;&lt;div&gt;Мелитополь, Запорожская область, Украина СССР&lt;/div&gt;" style="whiteSpace=wrap;html=1;rounded=1;shadow=1;labelBackgroundColor=none;strokeWidth=1;fontFamily=Verdana;fontSize=12;align=center;" parent="1" vertex="1">
          <mxGeometry x="-100" y="130" width="120" height="200" as="geometry" />
        </mxCell>
        <mxCell id="c7k48cxhKmRUR40ziaNG-44" value="" style="rounded=0;html=1;labelBackgroundColor=none;startArrow=none;startFill=0;startSize=5;endArrow=none;endFill=0;endSize=5;jettySize=auto;orthogonalLoop=1;strokeWidth=1;fontFamily=Verdana;fontSize=12;exitX=1;exitY=0.25;exitDx=0;exitDy=0;" parent="1" source="62893188c0fa7362-2" target="c7k48cxhKmRUR40ziaNG-43" edge="1">
          <mxGeometry x="-0.3002" y="13" relative="1" as="geometry">
            <mxPoint as="offset" />
            <mxPoint x="170" y="420" as="sourcePoint" />
          </mxGeometry>
        </mxCell>
        <mxCell id="c7k48cxhKmRUR40ziaNG-45" value="" style="rounded=0;html=1;labelBackgroundColor=none;startArrow=none;startFill=0;startSize=5;endArrow=none;endFill=0;endSize=5;jettySize=auto;orthogonalLoop=1;strokeWidth=1;fontFamily=Verdana;fontSize=12;exitX=0;exitY=0.25;exitDx=0;exitDy=0;" parent="1" source="62893188c0fa7362-2" target="c7k48cxhKmRUR40ziaNG-40" edge="1">
          <mxGeometry x="-0.359" y="-11" relative="1" as="geometry">
            <mxPoint as="offset" />
            <mxPoint x="-30" y="460" as="sourcePoint" />
          </mxGeometry>
        </mxCell>
        <mxCell id="c7k48cxhKmRUR40ziaNG-47" value="&lt;div style=&quot;font-size: 11px;&quot;&gt;&lt;br&gt;&lt;/div&gt;" style="whiteSpace=wrap;html=1;rounded=1;shadow=1;labelBackgroundColor=none;strokeWidth=1;fontFamily=Verdana;fontSize=12;align=center;" parent="1" vertex="1">
          <mxGeometry x="-280" y="-150" width="120" height="200" as="geometry" />
        </mxCell>
        <mxCell id="c7k48cxhKmRUR40ziaNG-48" style="edgeStyle=orthogonalEdgeStyle;rounded=0;orthogonalLoop=1;jettySize=auto;html=1;exitX=0;exitY=0.5;exitDx=0;exitDy=0;entryX=1;entryY=0.5;entryDx=0;entryDy=0;strokeColor=default;shape=link;" parent="1" source="c7k48cxhKmRUR40ziaNG-50" target="c7k48cxhKmRUR40ziaNG-47" edge="1">
          <mxGeometry relative="1" as="geometry" />
        </mxCell>
        <mxCell id="c7k48cxhKmRUR40ziaNG-49" value="-" style="edgeLabel;html=1;align=center;verticalAlign=middle;resizable=0;points=[];" parent="c7k48cxhKmRUR40ziaNG-48" vertex="1" connectable="0">
          <mxGeometry x="0.526" y="-12" relative="1" as="geometry">
            <mxPoint as="offset" />
          </mxGeometry>
        </mxCell>
        <mxCell id="c7k48cxhKmRUR40ziaNG-50" value="Яков" style="whiteSpace=wrap;html=1;rounded=1;shadow=1;labelBackgroundColor=none;strokeWidth=1;fontFamily=Verdana;fontSize=12;align=center;" parent="1" vertex="1">
          <mxGeometry x="70" y="-150" width="120" height="200" as="geometry" />
        </mxCell>
        <mxCell id="c7k48cxhKmRUR40ziaNG-51" value="" style="rounded=0;html=1;labelBackgroundColor=none;startArrow=none;startFill=0;startSize=5;endArrow=none;endFill=0;endSize=5;jettySize=auto;orthogonalLoop=1;strokeWidth=1;fontFamily=Verdana;fontSize=12;exitX=1;exitY=0.25;exitDx=0;exitDy=0;" parent="1" source="c7k48cxhKmRUR40ziaNG-43" target="c7k48cxhKmRUR40ziaNG-50" edge="1">
          <mxGeometry x="-0.3002" y="13" relative="1" as="geometry">
            <mxPoint as="offset" />
            <mxPoint x="50" y="180" as="sourcePoint" />
          </mxGeometry>
        </mxCell>
        <mxCell id="c7k48cxhKmRUR40ziaNG-52" value="" style="rounded=0;html=1;labelBackgroundColor=none;startArrow=none;startFill=0;startSize=5;endArrow=none;endFill=0;endSize=5;jettySize=auto;orthogonalLoop=1;strokeWidth=1;fontFamily=Verdana;fontSize=12;exitX=0;exitY=0.25;exitDx=0;exitDy=0;" parent="1" source="c7k48cxhKmRUR40ziaNG-43" target="c7k48cxhKmRUR40ziaNG-47" edge="1">
          <mxGeometry x="-0.359" y="-11" relative="1" as="geometry">
            <mxPoint as="offset" />
            <mxPoint x="-130" y="180" as="sourcePoint" />
          </mxGeometry>
        </mxCell>
        <mxCell id="c7k48cxhKmRUR40ziaNG-61" value="Поленовская (Белая) Неонила Ивановна&lt;br&gt;&lt;div&gt;(1917)&lt;/div&gt;&lt;div&gt;-&lt;/div&gt;&lt;div&gt;&lt;br&gt;&lt;/div&gt;" style="whiteSpace=wrap;html=1;rounded=1;shadow=1;labelBackgroundColor=none;strokeWidth=1;fontFamily=Verdana;fontSize=12;align=center;" parent="1" vertex="1">
          <mxGeometry x="-1800" y="-150" width="120" height="200" as="geometry" />
        </mxCell>
        <mxCell id="c7k48cxhKmRUR40ziaNG-62" style="edgeStyle=orthogonalEdgeStyle;rounded=0;orthogonalLoop=1;jettySize=auto;html=1;exitX=0;exitY=0.5;exitDx=0;exitDy=0;entryX=1;entryY=0.5;entryDx=0;entryDy=0;strokeColor=default;shape=link;" parent="1" source="c7k48cxhKmRUR40ziaNG-64" target="c7k48cxhKmRUR40ziaNG-61" edge="1">
          <mxGeometry relative="1" as="geometry" />
        </mxCell>
        <mxCell id="c7k48cxhKmRUR40ziaNG-63" value="-" style="edgeLabel;html=1;align=center;verticalAlign=middle;resizable=0;points=[];" parent="c7k48cxhKmRUR40ziaNG-62" vertex="1" connectable="0">
          <mxGeometry x="0.526" y="-12" relative="1" as="geometry">
            <mxPoint as="offset" />
          </mxGeometry>
        </mxCell>
        <mxCell id="c7k48cxhKmRUR40ziaNG-64" value="Поленовский Николай Лаврентьевич&lt;br&gt;(1912)&lt;div&gt;-&lt;/div&gt;&lt;div&gt;&lt;span style=&quot;font-size: 11px;&quot;&gt;Спасское,&lt;/span&gt;&lt;/div&gt;&lt;div&gt;&lt;span style=&quot;font-size: 11px; background-color: initial;&quot;&gt;Таврийская губерния, Украина Российская Империя&lt;/span&gt;&lt;/div&gt;" style="whiteSpace=wrap;html=1;rounded=1;shadow=1;labelBackgroundColor=none;strokeWidth=1;fontFamily=Verdana;fontSize=12;align=center;" parent="1" vertex="1">
          <mxGeometry x="-900" y="-150" width="120" height="200" as="geometry" />
        </mxCell>
        <mxCell id="c7k48cxhKmRUR40ziaNG-65" value="" style="rounded=0;html=1;labelBackgroundColor=none;startArrow=none;startFill=0;startSize=5;endArrow=none;endFill=0;endSize=5;jettySize=auto;orthogonalLoop=1;strokeWidth=1;fontFamily=Verdana;fontSize=12;exitX=1;exitY=0.25;exitDx=0;exitDy=0;" parent="1" source="c7k48cxhKmRUR40ziaNG-40" target="c7k48cxhKmRUR40ziaNG-64" edge="1">
          <mxGeometry x="-0.3002" y="13" relative="1" as="geometry">
            <mxPoint as="offset" />
            <mxPoint x="-600" y="180" as="sourcePoint" />
          </mxGeometry>
        </mxCell>
        <mxCell id="c7k48cxhKmRUR40ziaNG-66" value="" style="rounded=0;html=1;labelBackgroundColor=none;startArrow=none;startFill=0;startSize=5;endArrow=none;endFill=0;endSize=5;jettySize=auto;orthogonalLoop=1;strokeWidth=1;fontFamily=Verdana;fontSize=12;exitX=0;exitY=0.25;exitDx=0;exitDy=0;" parent="1" source="c7k48cxhKmRUR40ziaNG-40" target="c7k48cxhKmRUR40ziaNG-61" edge="1">
          <mxGeometry x="-0.359" y="-11" relative="1" as="geometry">
            <mxPoint as="offset" />
            <mxPoint x="-760" y="180" as="sourcePoint" />
          </mxGeometry>
        </mxCell>
        <mxCell id="ptxZJH5uZ2XYuc1M8Gdh-1" value="&lt;div style=&quot;font-size: 11px;&quot;&gt;Белая (?) Ольга&lt;br&gt;(-)&lt;/div&gt;&lt;div style=&quot;font-size: 11px;&quot;&gt;-&lt;/div&gt;" style="whiteSpace=wrap;html=1;rounded=1;shadow=1;labelBackgroundColor=none;strokeWidth=1;fontFamily=Verdana;fontSize=12;align=center;" vertex="1" parent="1">
          <mxGeometry x="-2080" y="-430" width="120" height="200" as="geometry" />
        </mxCell>
        <mxCell id="ptxZJH5uZ2XYuc1M8Gdh-2" style="edgeStyle=orthogonalEdgeStyle;rounded=0;orthogonalLoop=1;jettySize=auto;html=1;exitX=0;exitY=0.5;exitDx=0;exitDy=0;entryX=1;entryY=0.5;entryDx=0;entryDy=0;strokeColor=default;shape=link;" edge="1" parent="1" source="ptxZJH5uZ2XYuc1M8Gdh-4" target="ptxZJH5uZ2XYuc1M8Gdh-1">
          <mxGeometry relative="1" as="geometry" />
        </mxCell>
        <mxCell id="ptxZJH5uZ2XYuc1M8Gdh-3" value="-" style="edgeLabel;html=1;align=center;verticalAlign=middle;resizable=0;points=[];" vertex="1" connectable="0" parent="ptxZJH5uZ2XYuc1M8Gdh-2">
          <mxGeometry x="0.526" y="-12" relative="1" as="geometry">
            <mxPoint as="offset" />
          </mxGeometry>
        </mxCell>
        <mxCell id="ptxZJH5uZ2XYuc1M8Gdh-4" value="&lt;div&gt;Белый Иван Григорьевич&lt;br&gt;(-)&lt;br&gt;-&lt;/div&gt;" style="whiteSpace=wrap;html=1;rounded=1;shadow=1;labelBackgroundColor=none;strokeWidth=1;fontFamily=Verdana;fontSize=12;align=center;" vertex="1" parent="1">
          <mxGeometry x="-1510" y="-430" width="120" height="200" as="geometry" />
        </mxCell>
        <mxCell id="ptxZJH5uZ2XYuc1M8Gdh-5" value="" style="rounded=0;html=1;labelBackgroundColor=none;startArrow=none;startFill=0;startSize=5;endArrow=none;endFill=0;endSize=5;jettySize=auto;orthogonalLoop=1;strokeWidth=1;fontFamily=Verdana;fontSize=12;exitX=1;exitY=0.25;exitDx=0;exitDy=0;" edge="1" parent="1" target="ptxZJH5uZ2XYuc1M8Gdh-4" source="c7k48cxhKmRUR40ziaNG-61">
          <mxGeometry x="-0.3002" y="13" relative="1" as="geometry">
            <mxPoint as="offset" />
            <mxPoint x="-770" y="-110" as="sourcePoint" />
          </mxGeometry>
        </mxCell>
        <mxCell id="ptxZJH5uZ2XYuc1M8Gdh-6" value="" style="rounded=0;html=1;labelBackgroundColor=none;startArrow=none;startFill=0;startSize=5;endArrow=none;endFill=0;endSize=5;jettySize=auto;orthogonalLoop=1;strokeWidth=1;fontFamily=Verdana;fontSize=12;exitX=0;exitY=0.25;exitDx=0;exitDy=0;" edge="1" parent="1" target="ptxZJH5uZ2XYuc1M8Gdh-1" source="c7k48cxhKmRUR40ziaNG-61">
          <mxGeometry x="-0.359" y="-11" relative="1" as="geometry">
            <mxPoint as="offset" />
            <mxPoint x="-960" y="-100" as="sourcePoint" />
          </mxGeometry>
        </mxCell>
        <mxCell id="ptxZJH5uZ2XYuc1M8Gdh-13" value="&lt;div style=&quot;font-size: 11px;&quot;&gt;Поленовская (?) Ефимия&lt;br&gt;(-)&lt;/div&gt;&lt;div style=&quot;font-size: 11px;&quot;&gt;-&lt;/div&gt;" style="whiteSpace=wrap;html=1;rounded=1;shadow=1;labelBackgroundColor=none;strokeWidth=1;fontFamily=Verdana;fontSize=12;align=center;" vertex="1" parent="1">
          <mxGeometry x="-1180" y="-430" width="120" height="200" as="geometry" />
        </mxCell>
        <mxCell id="ptxZJH5uZ2XYuc1M8Gdh-14" style="edgeStyle=orthogonalEdgeStyle;rounded=0;orthogonalLoop=1;jettySize=auto;html=1;exitX=0;exitY=0.5;exitDx=0;exitDy=0;entryX=1;entryY=0.5;entryDx=0;entryDy=0;strokeColor=default;shape=link;" edge="1" parent="1" source="ptxZJH5uZ2XYuc1M8Gdh-16" target="ptxZJH5uZ2XYuc1M8Gdh-13">
          <mxGeometry relative="1" as="geometry" />
        </mxCell>
        <mxCell id="ptxZJH5uZ2XYuc1M8Gdh-15" value="-" style="edgeLabel;html=1;align=center;verticalAlign=middle;resizable=0;points=[];" vertex="1" connectable="0" parent="ptxZJH5uZ2XYuc1M8Gdh-14">
          <mxGeometry x="0.526" y="-12" relative="1" as="geometry">
            <mxPoint as="offset" />
          </mxGeometry>
        </mxCell>
        <mxCell id="ptxZJH5uZ2XYuc1M8Gdh-16" value="&lt;div&gt;Поленовский Лаврентий Степанович&lt;br&gt;(-)&lt;br&gt;-&lt;/div&gt;" style="whiteSpace=wrap;html=1;rounded=1;shadow=1;labelBackgroundColor=none;strokeWidth=1;fontFamily=Verdana;fontSize=12;align=center;" vertex="1" parent="1">
          <mxGeometry x="-610" y="-430" width="120" height="200" as="geometry" />
        </mxCell>
        <mxCell id="ptxZJH5uZ2XYuc1M8Gdh-17" value="" style="rounded=0;html=1;labelBackgroundColor=none;startArrow=none;startFill=0;startSize=5;endArrow=none;endFill=0;endSize=5;jettySize=auto;orthogonalLoop=1;strokeWidth=1;fontFamily=Verdana;fontSize=12;exitX=1;exitY=0.25;exitDx=0;exitDy=0;" edge="1" parent="1" target="ptxZJH5uZ2XYuc1M8Gdh-16" source="c7k48cxhKmRUR40ziaNG-64">
          <mxGeometry x="-0.3002" y="13" relative="1" as="geometry">
            <mxPoint as="offset" />
            <mxPoint x="-710" y="-90" as="sourcePoint" />
          </mxGeometry>
        </mxCell>
        <mxCell id="ptxZJH5uZ2XYuc1M8Gdh-18" value="" style="rounded=0;html=1;labelBackgroundColor=none;startArrow=none;startFill=0;startSize=5;endArrow=none;endFill=0;endSize=5;jettySize=auto;orthogonalLoop=1;strokeWidth=1;fontFamily=Verdana;fontSize=12;exitX=0;exitY=0.25;exitDx=0;exitDy=0;" edge="1" parent="1" target="ptxZJH5uZ2XYuc1M8Gdh-13" source="c7k48cxhKmRUR40ziaNG-64">
          <mxGeometry x="-0.359" y="-11" relative="1" as="geometry">
            <mxPoint as="offset" />
            <mxPoint x="-930" y="-100" as="sourcePoint" />
          </mxGeometry>
        </mxCell>
        <mxCell id="ptxZJH5uZ2XYuc1M8Gdh-19" value="&lt;div style=&quot;font-size: 11px;&quot;&gt;&lt;font style=&quot;font-size: 11px;&quot;&gt;Поленовская (?) Малгажта&lt;/font&gt;&lt;/div&gt;&lt;div style=&quot;font-size: 11px;&quot;&gt;&lt;font style=&quot;font-size: 11px;&quot;&gt;(-)&amp;nbsp;&lt;/font&gt;&lt;/div&gt;&lt;div style=&quot;font-size: 11px;&quot;&gt;-&lt;/div&gt;&lt;div style=&quot;font-size: 11px;&quot;&gt;&lt;br&gt;&lt;/div&gt;" style="whiteSpace=wrap;html=1;rounded=1;shadow=1;labelBackgroundColor=none;strokeWidth=1;fontFamily=Verdana;fontSize=12;align=center;" vertex="1" parent="1">
          <mxGeometry x="-790" y="-720" width="120" height="200" as="geometry" />
        </mxCell>
        <mxCell id="ptxZJH5uZ2XYuc1M8Gdh-20" style="edgeStyle=orthogonalEdgeStyle;rounded=0;orthogonalLoop=1;jettySize=auto;html=1;exitX=0;exitY=0.5;exitDx=0;exitDy=0;entryX=1;entryY=0.5;entryDx=0;entryDy=0;strokeColor=default;shape=link;" edge="1" parent="1" source="ptxZJH5uZ2XYuc1M8Gdh-22" target="ptxZJH5uZ2XYuc1M8Gdh-19">
          <mxGeometry relative="1" as="geometry" />
        </mxCell>
        <mxCell id="ptxZJH5uZ2XYuc1M8Gdh-21" value="-" style="edgeLabel;html=1;align=center;verticalAlign=middle;resizable=0;points=[];" vertex="1" connectable="0" parent="ptxZJH5uZ2XYuc1M8Gdh-20">
          <mxGeometry x="0.526" y="-12" relative="1" as="geometry">
            <mxPoint as="offset" />
          </mxGeometry>
        </mxCell>
        <mxCell id="ptxZJH5uZ2XYuc1M8Gdh-22" value="Поленовский Стефан Казимирович&lt;div&gt;(-)&lt;/div&gt;&lt;div&gt;Пшемысль, Польша&lt;/div&gt;&lt;div&gt;&lt;br&gt;&lt;/div&gt;" style="whiteSpace=wrap;html=1;rounded=1;shadow=1;labelBackgroundColor=none;strokeWidth=1;fontFamily=Verdana;fontSize=12;align=center;" vertex="1" parent="1">
          <mxGeometry x="-440" y="-720" width="120" height="200" as="geometry" />
        </mxCell>
        <mxCell id="ptxZJH5uZ2XYuc1M8Gdh-23" value="" style="rounded=0;html=1;labelBackgroundColor=none;startArrow=none;startFill=0;startSize=5;endArrow=none;endFill=0;endSize=5;jettySize=auto;orthogonalLoop=1;strokeWidth=1;fontFamily=Verdana;fontSize=12;exitX=1;exitY=0.25;exitDx=0;exitDy=0;" edge="1" parent="1" target="ptxZJH5uZ2XYuc1M8Gdh-22" source="ptxZJH5uZ2XYuc1M8Gdh-16">
          <mxGeometry x="-0.3002" y="13" relative="1" as="geometry">
            <mxPoint as="offset" />
            <mxPoint x="-460" y="-393" as="sourcePoint" />
          </mxGeometry>
        </mxCell>
        <mxCell id="ptxZJH5uZ2XYuc1M8Gdh-24" value="" style="rounded=0;html=1;labelBackgroundColor=none;startArrow=none;startFill=0;startSize=5;endArrow=none;endFill=0;endSize=5;jettySize=auto;orthogonalLoop=1;strokeWidth=1;fontFamily=Verdana;fontSize=12;exitX=0;exitY=0.25;exitDx=0;exitDy=0;" edge="1" parent="1" target="ptxZJH5uZ2XYuc1M8Gdh-19" source="ptxZJH5uZ2XYuc1M8Gdh-16">
          <mxGeometry x="-0.359" y="-11" relative="1" as="geometry">
            <mxPoint as="offset" />
            <mxPoint x="-630" y="-380" as="sourcePoint" />
          </mxGeometry>
        </mxCell>
        <mxCell id="ptxZJH5uZ2XYuc1M8Gdh-28" value="Поленовский Казимир&lt;br&gt;&lt;span style=&quot;background-color: initial;&quot;&gt;(-)&lt;/span&gt;&lt;div&gt;-&lt;/div&gt;" style="whiteSpace=wrap;html=1;rounded=1;shadow=1;labelBackgroundColor=none;strokeWidth=1;fontFamily=Verdana;fontSize=12;align=center;" vertex="1" parent="1">
          <mxGeometry x="-270" y="-1010" width="120" height="200" as="geometry" />
        </mxCell>
        <mxCell id="ptxZJH5uZ2XYuc1M8Gdh-29" value="" style="rounded=0;html=1;labelBackgroundColor=none;startArrow=none;startFill=0;startSize=5;endArrow=none;endFill=0;endSize=5;jettySize=auto;orthogonalLoop=1;strokeWidth=1;fontFamily=Verdana;fontSize=12;exitX=1;exitY=0.25;exitDx=0;exitDy=0;" edge="1" parent="1" target="ptxZJH5uZ2XYuc1M8Gdh-28" source="ptxZJH5uZ2XYuc1M8Gdh-22">
          <mxGeometry x="-0.3002" y="13" relative="1" as="geometry">
            <mxPoint as="offset" />
            <mxPoint x="-300" y="-670" as="sourcePoint" />
          </mxGeometry>
        </mxCell>
        <mxCell id="cqPloBd2mLtS7lt7X54p-1" value="Белый Григорий&lt;br&gt;&lt;span style=&quot;background-color: initial;&quot;&gt;(-)&lt;/span&gt;&lt;div&gt;-&lt;/div&gt;" style="whiteSpace=wrap;html=1;rounded=1;shadow=1;labelBackgroundColor=none;strokeWidth=1;fontFamily=Verdana;fontSize=12;align=center;" vertex="1" parent="1">
          <mxGeometry x="-1340" y="-720" width="120" height="200" as="geometry" />
        </mxCell>
        <mxCell id="cqPloBd2mLtS7lt7X54p-2" value="" style="rounded=0;html=1;labelBackgroundColor=none;startArrow=none;startFill=0;startSize=5;endArrow=none;endFill=0;endSize=5;jettySize=auto;orthogonalLoop=1;strokeWidth=1;fontFamily=Verdana;fontSize=12;exitX=1;exitY=0.25;exitDx=0;exitDy=0;" edge="1" parent="1" target="cqPloBd2mLtS7lt7X54p-1" source="ptxZJH5uZ2XYuc1M8Gdh-4">
          <mxGeometry x="-0.3002" y="13" relative="1" as="geometry">
            <mxPoint as="offset" />
            <mxPoint x="-1370" y="-380" as="sourcePoint" />
          </mxGeometry>
        </mxCell>
        <mxCell id="cqPloBd2mLtS7lt7X54p-3" value="Димитров Василий&lt;br&gt;&lt;span style=&quot;background-color: initial;&quot;&gt;(-)&lt;/span&gt;&lt;div&gt;-&lt;/div&gt;" style="whiteSpace=wrap;html=1;rounded=1;shadow=1;labelBackgroundColor=none;strokeWidth=1;fontFamily=Verdana;fontSize=12;align=center;" vertex="1" parent="1">
          <mxGeometry x="980" y="-720" width="120" height="200" as="geometry" />
        </mxCell>
        <mxCell id="cqPloBd2mLtS7lt7X54p-4" value="" style="rounded=0;html=1;labelBackgroundColor=none;startArrow=none;startFill=0;startSize=5;endArrow=none;endFill=0;endSize=5;jettySize=auto;orthogonalLoop=1;strokeWidth=1;fontFamily=Verdana;fontSize=12;exitX=1;exitY=0.25;exitDx=0;exitDy=0;" edge="1" parent="1" target="cqPloBd2mLtS7lt7X54p-3" source="c7k48cxhKmRUR40ziaNG-29">
          <mxGeometry x="-0.3002" y="13" relative="1" as="geometry">
            <mxPoint as="offset" />
            <mxPoint x="950" y="-380" as="sourcePoint" />
          </mxGeometry>
        </mxCell>
        <mxCell id="cqPloBd2mLtS7lt7X54p-5" value="Кирил&lt;br&gt;&lt;span style=&quot;background-color: initial;&quot;&gt;(-)&lt;/span&gt;&lt;div&gt;-&lt;/div&gt;" style="whiteSpace=wrap;html=1;rounded=1;shadow=1;labelBackgroundColor=none;strokeWidth=1;fontFamily=Verdana;fontSize=12;align=center;" vertex="1" parent="1">
          <mxGeometry x="630" y="-720" width="120" height="200" as="geometry" />
        </mxCell>
        <mxCell id="cqPloBd2mLtS7lt7X54p-6" value="" style="rounded=0;html=1;labelBackgroundColor=none;startArrow=none;startFill=0;startSize=5;endArrow=none;endFill=0;endSize=5;jettySize=auto;orthogonalLoop=1;strokeWidth=1;fontFamily=Verdana;fontSize=12;exitX=1;exitY=0.25;exitDx=0;exitDy=0;" edge="1" parent="1" target="cqPloBd2mLtS7lt7X54p-5" source="c7k48cxhKmRUR40ziaNG-26">
          <mxGeometry x="-0.3002" y="13" relative="1" as="geometry">
            <mxPoint as="offset" />
            <mxPoint x="610" y="-380" as="sourcePoint" />
          </mxGeometry>
        </mxCell>
        <mxCell id="cqPloBd2mLtS7lt7X54p-7" value="Адам&lt;br&gt;&lt;span style=&quot;background-color: initial;&quot;&gt;(-)&lt;/span&gt;&lt;div&gt;-&lt;/div&gt;" style="whiteSpace=wrap;html=1;rounded=1;shadow=1;labelBackgroundColor=none;strokeWidth=1;fontFamily=Verdana;fontSize=12;align=center;" vertex="1" parent="1">
          <mxGeometry x="1100" y="-440" width="120" height="200" as="geometry" />
        </mxCell>
        <mxCell id="cqPloBd2mLtS7lt7X54p-8" value="" style="rounded=0;html=1;labelBackgroundColor=none;startArrow=none;startFill=0;startSize=5;endArrow=none;endFill=0;endSize=5;jettySize=auto;orthogonalLoop=1;strokeWidth=1;fontFamily=Verdana;fontSize=12;exitX=1;exitY=0.25;exitDx=0;exitDy=0;" edge="1" parent="1" target="cqPloBd2mLtS7lt7X54p-7" source="c7k48cxhKmRUR40ziaNG-33">
          <mxGeometry x="-0.3002" y="13" relative="1" as="geometry">
            <mxPoint as="offset" />
            <mxPoint x="1070" y="-100" as="sourcePoint" />
          </mxGeometry>
        </mxCell>
        <mxCell id="cqPloBd2mLtS7lt7X54p-9" value="&lt;span style=&quot;background-color: initial;&quot;&gt;Винтерман Яков (-)&lt;/span&gt;&lt;div&gt;-&lt;/div&gt;" style="whiteSpace=wrap;html=1;rounded=1;shadow=1;labelBackgroundColor=none;strokeWidth=1;fontFamily=Verdana;fontSize=12;align=center;" vertex="1" parent="1">
          <mxGeometry x="1450" y="-440" width="120" height="200" as="geometry" />
        </mxCell>
        <mxCell id="cqPloBd2mLtS7lt7X54p-10" value="" style="rounded=0;html=1;labelBackgroundColor=none;startArrow=none;startFill=0;startSize=5;endArrow=none;endFill=0;endSize=5;jettySize=auto;orthogonalLoop=1;strokeWidth=1;fontFamily=Verdana;fontSize=12;exitX=1;exitY=0.25;exitDx=0;exitDy=0;" edge="1" parent="1" target="cqPloBd2mLtS7lt7X54p-9" source="c7k48cxhKmRUR40ziaNG-36">
          <mxGeometry x="-0.3002" y="13" relative="1" as="geometry">
            <mxPoint as="offset" />
            <mxPoint x="1430" y="-110" as="sourcePoint" />
          </mxGeometry>
        </mxCell>
      </root>
    </mxGraphModel>
  </diagram>
  <diagram id="mGxHaYVLvp0xVrCpGcyh" name="MoreInfo">
    <mxGraphModel dx="782" dy="393" grid="1" gridSize="10" guides="1" tooltips="1" connect="1" arrows="1" fold="1" page="1" pageScale="1" pageWidth="827" pageHeight="1169" math="0" shadow="0">
      <root>
        <mxCell id="0" />
        <mxCell id="1" parent="0" />
        <mxCell id="dgaM42__SF3DrTV7JJ63-1" value="&lt;h1 style=&quot;margin-top: 0px;&quot;&gt;&lt;span style=&quot;font-family: Verdana; font-size: 12px; text-align: center;&quot;&gt;Поленовский Стефан Казимирович&lt;/span&gt;&lt;/h1&gt;&lt;p&gt;В 1879 году переехал в село Спасское, Таврической Губернии&lt;/p&gt;" style="text;html=1;whiteSpace=wrap;overflow=hidden;rounded=0;" vertex="1" parent="1">
          <mxGeometry x="40" y="40" width="320" height="120" as="geometry" />
        </mxCell>
      </root>
    </mxGraphModel>
  </diagram>
</mxfile>
